<svg width="14" height="9" viewBox="0 0 14 9" fill="none" xmlns="http://www.w3.org/2000/svg">
<path id="Vector" d="M0.292786 0.96454C0.480314 0.777068 0.734622 0.671753 0.999786 0.671753C1.26495 0.671753 1.51926 0.777068 1.70679 0.96454L6.65679 5.91454L11.6068 0.96454C11.7954 0.782381 12.048 0.681587 12.3102 0.683865C12.5724 0.686143 12.8232 0.791313 13.0086 0.976721C13.194 1.16213 13.2992 1.41294 13.3015 1.67514C13.3037 1.93733 13.2029 2.18994 13.0208 2.37854L7.36379 8.03554C7.17626 8.22301 6.92195 8.32833 6.65679 8.32833C6.39162 8.32833 6.13731 8.22301 5.94979 8.03554L0.292786 2.37854C0.105315 2.19101 0 1.9367 0 1.67154C0 1.40638 0.105315 1.15207 0.292786 0.96454Z" fill="white"/>
</svg>
